<?xml version="1.0" encoding="UTF-8"?>
<svg width="256px" height="256px" viewBox="0 0 256 256" version="1.1" xmlns="http://www.w3.org/2000/svg" xmlns:xlink="http://www.w3.org/1999/xlink">
    <!-- Generator: Sketch 49.3 (51167) - http://www.bohemiancoding.com/sketch -->
    <title>fetch</title>
    <desc>Created with Sketch.</desc>
    <defs></defs>
    <g id="fetch" stroke="none" stroke-width="1" fill="none" fill-rule="evenodd">
        <g id="bg">
            <circle id="Oval-Copy" fill="#FF5500" cx="128" cy="128" r="128"></circle>
            <path d="M48,227.925935 C18.7372005,204.467999 0,168.422153 0,128 C0,57.307552 57.307552,0 128,0 C165.098612,0 198.510978,15.7826939 221.889017,41 L221.641505,41 C199.94208,24.0800455 172.6482,14 143,14 C72.307552,14 15,71.307552 15,142 C15,175.002098 27.4896112,205.087091 48,227.786146 L48,227.925935 Z" id="Combined-Shape" fill="#802B00"></path>
        </g>
        <path d="M122.128015,91.3052281 C120.792457,90.5039036 120.124704,89.3019169 120.124704,87.6992679 C120.124704,85.0281776 121.460236,83.6926453 124.131326,83.6926453 C125.466884,83.6926453 126.5353,84.0933076 127.336624,84.8946321 L151.376359,108.934367 C152.711917,109.735692 153.379671,110.937678 153.379671,112.540327 C153.379671,115.211418 151.910593,116.54695 148.972386,116.54695 C148.438178,116.54695 147.636854,116.279833 146.568412,115.745625 L146.16775,115.745625 L146.16775,115.344963 L122.128015,91.3052281 Z M148.972386,175.043639 L138.95583,175.043639 C131.476767,175.043639 126.001092,174.910093 122.528677,174.642976 L132.144571,191.470791 C133.213013,193.073448 133.74722,194.542528 133.74722,195.878076 C133.74722,197.747842 133.012669,199.41725 131.543591,200.886354 C130.074487,202.355456 128.405066,203.089996 126.5353,203.089996 C124.131326,203.089996 122.261586,202.155127 120.926028,200.285361 L105.700863,174.242314 L90.8763594,200.285361 L90.4756972,200.285361 C89.1401393,202.155127 87.270412,203.089996 84.8664257,203.089996 C82.99666,203.089996 81.327251,202.355456 79.8581475,200.886354 C78.3890441,199.41725 77.6545051,197.747842 77.6545051,195.878076 C77.6545051,194.542528 78.1887155,193.073448 79.2571541,191.470791 L92.0783462,169.033705 C88.3388122,166.362615 86.4690747,158.883654 86.4690747,146.596619 C86.4690747,142.857087 87.003285,138.316283 88.0717237,132.974102 L65.2339753,119.752248 C63.6313184,118.950923 62.8300018,117.481846 62.8300018,115.344963 C62.8300018,111.872548 64.5661877,110.136354 68.0386111,110.136354 C69.1070498,110.136354 69.9083666,110.269899 70.4425846,110.537016 L92.8796707,123.758871 C93.1467874,123.758871 93.5474497,123.625325 94.0816575,123.358208 L148.972386,123.358208 L148.972386,175.043639 Z M185.432651,169.434367 L197.853181,191.470791 C198.921622,193.073448 199.45583,194.542528 199.45583,195.878076 C199.45583,197.747842 198.721278,199.41725 197.2522,200.886354 C195.783097,202.355456 194.113675,203.089996 192.243909,203.089996 C189.839936,203.089996 187.970196,202.155127 186.634638,200.285361 L186.233975,200.285361 L171.409472,174.242314 L156.184306,200.285361 C154.848749,202.155127 152.979008,203.089996 150.575035,203.089996 C148.705269,203.089996 147.035847,202.355456 145.566744,200.886354 C144.097666,199.41725 143.363114,197.747842 143.363114,195.878076 C143.363114,194.542528 143.897322,193.073448 144.965763,191.470791 L157.386293,169.835029 L157.386293,123.358208 L190.64126,156.613175 C189.839936,163.825121 188.103741,168.098809 185.432651,169.434367 Z M222.69424,125.36152 C222.69424,126.964169 222.160032,128.299701 221.091591,129.368142 L216.684306,133.775427 L212.677684,133.775427 L196.651194,133.775427 L191.041922,139.384698 C191.309039,140.720256 191.442585,142.857087 191.442585,145.795294 L162.594902,116.947612 L179.422717,100.119798 L189.839936,82.0899963 L195.048545,90.9045659 C195.315662,90.9045659 196.250532,91.3052281 197.853181,92.1065526 L197.853181,91.7058904 L208.270399,97.7158242 C211.208606,99.0513821 212.677684,101.45533 212.677684,104.927745 L212.677684,113.341652 L220.690929,121.354897 C222.026487,122.156222 222.69424,123.491754 222.69424,125.36152 Z" id="Page-1" fill="#802B00"></path>
        <path d="M107.123862,76.3089818 C105.788304,75.5076573 105.12055,74.3056705 105.12055,72.7030215 C105.12055,70.0319313 106.456083,68.696399 109.127173,68.696399 C110.462731,68.696399 111.531147,69.0970613 112.332471,69.8983858 L136.372206,93.9381209 C137.707764,94.7394454 138.375517,95.9414321 138.375517,97.5440811 C138.375517,100.215171 136.90644,101.550704 133.968233,101.550704 C133.434025,101.550704 132.6327,101.283587 131.564259,100.749379 L131.163597,100.749379 L131.163597,100.348717 L107.123862,76.3089818 Z M133.968233,160.047392 L123.951676,160.047392 C116.472613,160.047392 110.996939,159.913847 107.524524,159.64673 L117.140418,176.474545 C118.208859,178.077201 118.743067,179.546282 118.743067,180.881829 C118.743067,182.751595 118.008515,184.421004 116.539437,185.890108 C115.070334,187.35921 113.400912,188.09375 111.531147,188.09375 C109.127173,188.09375 107.257433,187.158881 105.921875,185.289114 L90.6967094,159.246068 L75.8722061,185.289114 L75.4715439,185.289114 C74.1359859,187.158881 72.2662587,188.09375 69.8622724,188.09375 C67.9925066,188.09375 66.3230977,187.35921 64.8539942,185.890108 C63.3848907,184.421004 62.6503518,182.751595 62.6503518,180.881829 C62.6503518,179.546282 63.1845622,178.077201 64.2530008,176.474545 L77.0741929,154.037459 C73.3346589,151.366368 71.4649214,143.887408 71.4649214,131.600373 C71.4649214,127.860841 71.9991317,123.320036 73.0675704,117.977856 L50.229822,104.756002 C48.6271651,103.954677 47.8258485,102.485599 47.8258485,100.348717 C47.8258485,96.8763022 49.5620343,95.1401076 53.0344578,95.1401076 C54.1028964,95.1401076 54.9042132,95.2736532 55.4384313,95.5407699 L77.8755174,108.762624 C78.1426341,108.762624 78.5432964,108.629079 79.0775041,108.361962 L133.968233,108.361962 L133.968233,160.047392 Z M170.428498,154.438121 L182.849027,176.474545 C183.917469,178.077201 184.451676,179.546282 184.451676,180.881829 C184.451676,182.751595 183.717125,184.421004 182.248047,185.890108 C180.778943,187.35921 179.109522,188.09375 177.239756,188.09375 C174.835782,188.09375 172.966042,187.158881 171.630484,185.289114 L171.229822,185.289114 L156.405319,159.246068 L141.180153,185.289114 C139.844595,187.158881 137.974855,188.09375 135.570882,188.09375 C133.701116,188.09375 132.031694,187.35921 130.562591,185.890108 C129.093513,184.421004 128.358961,182.751595 128.358961,180.881829 C128.358961,179.546282 128.893169,178.077201 129.96161,176.474545 L142.38214,154.838783 L142.38214,108.361962 L175.637107,141.616929 C174.835782,148.828875 173.099588,153.102563 170.428498,154.438121 Z M207.690087,110.365273 C207.690087,111.967922 207.155879,113.303454 206.087438,114.371896 L201.680153,118.77918 L197.673531,118.77918 L181.647041,118.77918 L176.037769,124.388452 C176.304886,125.72401 176.438431,127.860841 176.438431,130.799048 L147.590749,101.951366 L164.418564,85.1235513 L174.835782,67.09375 L180.044392,75.9083195 C180.311508,75.9083195 181.246378,76.3089818 182.849027,77.1103063 L182.849027,76.709644 L193.266246,82.7195778 C196.204453,84.0551357 197.673531,86.4590836 197.673531,89.9314983 L197.673531,98.3454056 L205.686776,106.358651 C207.022334,107.159975 207.690087,108.495507 207.690087,110.365273 Z" id="Page-1" fill="#FFFFFF"></path>
    </g>
</svg>